<?xml version="1.0" encoding="utf-8"?>
<!-- Generator: Adobe Illustrator 27.7.0, SVG Export Plug-In . SVG Version: 6.00 Build 0)  -->
<svg version="1.1" id="Layer_1" xmlns="http://www.w3.org/2000/svg" xmlns:xlink="http://www.w3.org/1999/xlink" x="0px" y="0px"
	 viewBox="0 0 542.5 150.6" style="enable-background:new 0 0 542.5 150.6;" xml:space="preserve">
<style type="text/css">
	.st0{fill:#FFFCFC;}
	.st1{fill:#11A5E1;}
</style>
<path class="st0" d="M11.3,96.7c-5.3-3.6-8-9.2-8-16.7c0-4,0.6-7,1.9-9.1s3.1-3.1,5.6-3.1c1.8,0,3.2,0.5,4.4,1.5
	c1.1,1,1.7,2.3,1.7,3.9c0,1.4-0.1,2.7-0.3,3.8c0,0.3,0,0.8-0.1,1.5s-0.1,1.5-0.1,2.3c0,3.2,1.5,5.6,4.5,7.2s7.2,2.4,12.7,2.4
	c5.6,0,10-1.1,13.2-3.3c3.2-2.2,4.8-5.3,4.8-9.2c0-2.4-0.7-4.5-2.2-6.3s-3.3-3.2-5.5-4.4c-2.2-1.2-5.3-2.6-9.2-4.4
	c-5.1-2.2-9.3-4.2-12.5-6.1c-3.2-1.9-6-4.6-8.2-7.9c-2.3-3.3-3.4-7.5-3.4-12.4c0-5.2,1.3-9.8,3.8-13.8c2.6-4,6.2-7.1,11-9.4
	c4.8-2.2,10.5-3.3,16.9-3.3c4.8,0,9.3,0.8,13.3,2.3s7.3,3.9,9.7,7.1s3.6,7,3.6,11.6c0,4.5-0.6,7.9-1.9,10.2s-3.1,3.4-5.6,3.4
	c-1.7,0-3.2-0.6-4.3-1.7c-1.2-1.1-1.7-2.5-1.7-4.1c0-1.4,0.1-2.6,0.3-3.8c0.2-2.2,0.3-3.5,0.3-4.1c0-3-1.4-5.3-4.1-6.9
	c-2.7-1.6-6.1-2.4-10.1-2.4c-5.7,0-10.1,1.1-13.1,3.4s-4.5,5.4-4.5,9.5c0,2.7,0.8,5.1,2.3,7c1.6,1.9,3.5,3.6,5.8,4.9
	c2.3,1.3,5.6,2.8,9.7,4.6c5,2.2,9.1,4.2,12.1,6s5.6,4.2,7.8,7.3s3.2,6.9,3.2,11.4c0,8.5-3,15-8.9,19.6S42.3,102,32.4,102
	C23.7,102.2,16.6,100.4,11.3,96.7z"/>
<path class="st0" d="M123.8,78.6c0.5,0.9,0.7,2,0.7,3.6c0,2.9-0.6,5.1-1.9,6.7c-2.8,3.8-5.9,6.9-9.2,9.4c-3.3,2.4-7,3.7-11.2,3.7
	c-3.5,0-6.4-1.4-8.5-4.1c-3.8,2.7-7.7,4-11.8,4.1c-0.9,13.9-2.8,25.5-5.9,34.8c-3,9.3-7.5,14-13.4,14c-3.6,0-6.2-1.4-8-4.2
	c-1.7-2.8-2.6-6.7-2.6-11.6c0-7,1.5-15.3,4.5-24.6c3-9.4,7.6-19.7,13.8-31c0-10.5-0.1-17.8-0.2-21.9c-0.1-2.1,0.7-3.7,2.3-5
	c1.6-1.2,3.6-1.8,6-1.8c1.4,0,2.4,0.3,3,0.9c0.6,0.6,1,1.8,1,3.6s0,3.1,0.1,4c2.1-2.9,4.2-4.9,6.3-6.2c2.1-1.3,4.2-1.9,6.6-1.9
	c3.7,0,6.7,1.6,9.1,4.9c2.4,3.2,3.5,7.5,3.5,12.7c0,3.8-0.6,7.5-1.7,11.1s-2.7,6.9-4.7,9.8c1.4,0.4,2.5,0.6,3.5,0.6
	c2.2,0,4.3-0.9,6.3-2.6s4.5-4.6,7.7-8.6c0.8-1,1.7-1.5,2.7-1.5C122.6,77.3,123.3,77.7,123.8,78.6z M67.9,127.3
	c1.2-8.4,2-19,2.3-31.5c-2.9,7.2-5.1,14-6.8,20.6c-1.7,6.5-2.5,12-2.5,16.5c0,2.3,0.2,4.1,0.7,5.3s1.1,1.8,1.7,1.8
	C65.2,140,66.7,135.8,67.9,127.3z M89,87.2c2-2.3,3.6-5.1,4.8-8.4c1.2-3.3,1.8-6.8,1.8-10.5c0-2.2-0.4-3.8-1.2-4.9
	c-0.8-1.1-1.9-1.7-3.2-1.7c-2.4,0-5.3,2.7-8.6,8.2c-0.1,3.2-0.1,7.8-0.1,13.9c0,3.3,0,5.9-0.1,7.7C84.8,90.9,87,89.5,89,87.2z"/>
<path class="st0" d="M157.9,78.6c0.5,0.9,0.7,2,0.7,3.6c0,2.9-0.6,5.1-1.9,6.7c-2.5,3.2-5.9,6.2-10.4,8.9c-4.5,2.7-9.3,4.1-14.4,4.1
	c-7,0-12.4-2-16.2-6.1c-3.8-4.1-5.8-9.7-5.8-16.8c0-5,1-9.6,2.9-13.9s4.6-7.7,8-10.2s7.3-3.8,11.6-3.8c3.8,0,6.9,1.2,9.2,3.7
	s3.5,5.8,3.5,10.1c0,5-1.6,9.2-4.9,12.8c-3.3,3.6-8.8,6.4-16.6,8.5c1.7,3.3,4.8,5,9.4,5c3,0,6.4-1.1,10.2-3.4s7.1-5.2,9.9-8.9
	c0.8-1,1.7-1.5,2.7-1.5C156.7,77.3,157.4,77.7,157.9,78.6z M124.6,66.3c-1.7,3.1-2.5,6.8-2.5,11.2v0.2c3.9-1,7-2.5,9.2-4.5
	c2.3-2,3.4-4.3,3.4-7c0-1.4-0.3-2.5-1-3.3s-1.6-1.2-2.8-1.2C128.3,61.7,126.3,63.2,124.6,66.3z"/>
<path class="st0" d="M153.3,97.5c-1-2.9-1.5-7.5-1.5-13.8c0-9.3,1.2-18.2,3.7-26.6c0.6-2.1,1.6-3.6,2.9-4.6c1.4-1,3.3-1.5,5.7-1.5
	c1.3,0,2.3,0.2,2.8,0.5c0.5,0.4,0.8,1,0.8,2c0,1.1-0.5,3.7-1.5,7.8c-0.7,2.9-1.2,5.4-1.6,7.5c-0.4,2.2-0.7,4.8-1,8
	c2.2-6.2,4.6-11.2,7.4-15.1c2.7-3.9,5.4-6.6,8-8.3s5-2.5,7.2-2.5c4.3,0,6.5,2.3,6.5,7c0,2.8-0.7,7.9-2.2,15.2
	c-1.3,6.3-1.9,10.4-1.9,12.4c0,2.9,1,4.3,2.9,4.3c1.3,0,2.9-0.9,4.7-2.6c1.8-1.8,4.3-4.6,7.3-8.6c0.8-1,1.7-1.5,2.7-1.5
	c0.9,0,1.5,0.4,2,1.3s0.7,2,0.7,3.6c0,2.9-0.6,5.1-1.9,6.7c-2.8,3.8-5.9,6.9-9.2,9.4c-3.3,2.4-7,3.7-11.2,3.7
	c-3.4,0-5.9-1.1-7.7-3.2c-1.7-2.1-2.6-5.2-2.6-9.2c0-2,0.5-5.6,1.4-10.8c0.9-4.5,1.3-7.7,1.3-9.4c0-1.1-0.4-1.7-1.1-1.7
	c-0.9,0-2.1,1.2-3.6,3.6c-1.6,2.4-3.1,5.6-4.8,9.5c-1.6,4-2.9,8.1-3.9,12.5c-0.7,3.4-1.6,5.7-2.5,6.8c-1,1.2-2.5,1.8-4.5,1.8
	C156.1,101.9,154.3,100.4,153.3,97.5z"/>
<path class="st0" d="M260.3,78.6c0.5,0.9,0.7,2,0.7,3.6c0,2.9-0.6,5.1-1.9,6.7c-2.7,3.6-5.7,6.7-8.9,9.2c-3.2,2.6-6.5,3.8-9.6,3.8
	c-5,0-8.9-3.2-11.5-9.6c-2.8,3.8-5.2,6.4-7.3,7.7c-2.1,1.3-4.5,1.9-7.3,1.9c-4,0-7.4-1.6-10-4.9s-3.9-7.5-3.9-12.8
	c0-5.7,1.1-11.1,3.4-16c2.3-4.9,5.4-8.9,9.3-12.1c3.9-3.1,8.4-5,13.3-5.6c1.3-13.9,3.7-25.8,7.2-35.7S242,0,247.8,0
	c2.8,0,5.2,1.4,7.1,4.2s2.8,7,2.8,12.7c0,8-1.8,17.5-5.5,28.2c-3.6,10.8-8.5,21.8-14.6,33.2c0.3,4.2,0.8,7.2,1.7,8.9
	c0.9,1.8,2,2.7,3.4,2.7c1.8,0,3.6-0.9,5.5-2.6s4.3-4.6,7.5-8.6c0.8-1,1.7-1.5,2.7-1.5C259.2,77.3,259.9,77.7,260.3,78.6z
	 M221.7,89.3c1.3-1.1,2.8-3.2,4.8-6.2c-0.7-3.9-1-8.2-1-13c0-1.7,0.1-4.5,0.2-8.4c-3.6,1.2-6.7,3.9-9.1,7.9
	c-2.4,4.1-3.6,8.6-3.6,13.5c0,5.2,1.7,7.9,5,7.9C219.2,91,220.5,90.4,221.7,89.3z M242.8,17.8c-1.3,4.9-2.3,11.2-3.2,19
	s-1.5,16-1.9,24.6c7.4-17.5,11.1-31.6,11.1-42.3c0-2.7-0.2-4.9-0.6-6.4c-0.4-1.5-0.9-2.3-1.5-2.3C245.3,10.6,244.1,13,242.8,17.8z"
	/>
<path class="st0" d="M402.4,55.4c0.7,0.7,1,1.7,1,2.8c0,1.9-0.5,3.5-1.5,5c-1,1.4-2.6,2.2-4.8,2.3c-5.2,0.1-9.9-0.4-14.1-1.3
	c-4.6,10.7-10.2,19.6-16.7,26.7c-6.5,7.1-13,10.6-19.3,10.6c-5.8,0-10.2-3.4-13.1-10.1s-4.6-15.7-5-27c-4,12.5-8.5,21.8-13.5,27.9
	s-10.3,9.2-16,9.2c-6.4,0-11.2-4.3-14.4-12.9c-3.2-8.6-4.9-20.1-4.9-34.7c0-10.6,0.9-22.2,2.6-34.8c0.5-3.6,1.3-6.1,2.5-7.5
	s3.2-2.1,5.8-2.1c2,0,3.5,0.5,4.6,1.4s1.6,2.7,1.6,5.2c0,0.5-0.1,1.5-0.2,2.9c-2,14.7-3,27.3-3,37.6c0,9.6,0.8,17.1,2.3,22.3
	c1.5,5.2,3.6,7.9,6.2,7.9c2.3,0,5.1-2.6,8.4-7.9s6.5-13.1,9.8-23.5c3.2-10.4,6-22.8,8.2-37.1c0.5-3.3,1.5-5.6,2.9-6.8
	c1.4-1.3,3.4-1.9,5.8-1.9c2.1,0,3.6,0.5,4.5,1.5c1,1,1.4,2.4,1.4,4.4c0,1.1-0.1,2-0.2,2.7c-1.9,11.7-2.8,23.4-2.8,35.1
	c0,8,0.2,14.3,0.7,19.1s1.5,8.4,2.9,10.8s3.5,3.7,6.2,3.7c3.2,0,6.7-2.6,10.6-7.8c3.9-5.2,7.5-11.7,10.7-19.5
	c-4-2.7-7.1-6.3-9.1-10.6c-2.1-4.3-3.1-9.4-3.1-15c0-5.7,0.8-10.5,2.4-14.4s3.8-6.8,6.7-8.8c2.8-1.9,5.9-2.9,9.4-2.9
	c4.2,0,7.6,1.7,10.1,5s3.7,7.8,3.7,13.6c0,8.1-1.6,17.1-4.9,27.1c3.4,0.6,7.4,1,11.9,1C400.6,54.4,401.7,54.7,402.4,55.4z M376,48.7
	c2.6-8,3.9-14.7,3.9-19.9c0-3-0.4-5.2-1.1-6.6c-0.7-1.4-1.7-2.1-3-2.1c-1.8,0-3.2,1.1-4.4,3.4c-1.1,2.3-1.7,5.5-1.7,9.6
	C369.7,40.2,371.8,45.4,376,48.7z"/>
<path class="st0" d="M395.4,96.1c-2-3.3-2.9-7.6-2.9-13c0-3.2,0.4-7.3,1.1-12.3c0.8-5,1.7-9.7,2.9-14.1c0.6-2.3,1.4-3.9,2.4-4.7
	c1-0.8,2.6-1.3,4.7-1.3c3.4,0,5,1.2,5,3.7c0,1.8-0.6,5.9-1.9,12.4c-1.6,7.8-2.4,13.2-2.4,15.9c0,2.2,0.3,3.8,0.8,5
	c0.5,1.2,1.4,1.7,2.7,1.7c1.2,0,2.7-0.9,4.4-2.7c1.8-1.8,4.1-4.6,7.1-8.4c0.8-1,1.7-1.5,2.7-1.5c0.9,0,1.5,0.4,2,1.3
	c0.5,0.9,0.7,2,0.7,3.6c0,2.9-0.6,5-1.9,6.6c-6.5,8.6-12.5,12.9-18.2,12.9C400.5,101.1,397.4,99.4,395.4,96.1z M399.3,41.7
	c-1.4-1.4-2.1-3.4-2.1-5.8s0.9-4.6,2.7-6.2c1.8-1.7,4-2.5,6.7-2.5c2.5,0,4.3,0.6,5.9,1.9c1.5,1.3,2.3,3.1,2.3,5.4
	c0,2.9-0.9,5.1-2.6,6.7c-1.7,1.7-3.9,2.5-6.8,2.5C402.7,43.8,400.7,43.1,399.3,41.7z"/>
<path class="st0" d="M426.9,101.6c-1.8-1.7-2.7-3.7-2.7-5.8c0-1.9,0.6-3.5,1.9-4.9s3.1-2,5.6-2c0.9,0,1.9,0.1,3,0.3
	c1.2,0.2,2,0.3,2.6,0.4c-0.1-1.9-0.4-3.6-1.1-5.3c-0.7-1.7-1.6-3.3-2.6-4.8c-1.1-1.5-2.1-2.9-3-4c-2.1,4.2-4.1,7.8-6.1,10.6
	c-2,2.8-4.2,5.5-6.6,8c-1.2,1.3-2.5,1.9-3.8,1.9c-1.1,0-1.9-0.4-2.6-1.2c-0.7-0.8-1-1.8-1-3.1c0-1.4,0.5-2.8,1.4-4l1.3-1.7
	c3.6-4.9,6.4-8.9,8.2-12.1c1.1-2.1,2.5-4.9,4-8.4s3-7.1,4.5-10.8c1.3-3.2,3.9-4.7,7.9-4.7c1.9,0,3.1,0.2,3.9,0.5
	c0.7,0.4,1.1,0.9,1.1,1.7c0,0.4-0.1,1.1-0.4,2s-0.6,1.9-1.1,2.8c-1.2,2.6-1.8,4.8-1.8,6.6c0,1.1,0.3,2.3,1,3.6
	c0.7,1.3,1.8,2.9,3.2,4.9c2.1,3,3.7,5.6,4.8,7.7c1.1,2.1,1.6,4.4,1.6,7c0,0.7-0.1,1.7-0.2,3c3.2-1.4,7.1-5,11.4-10.9
	c0.8-1,1.7-1.5,2.7-1.5c0.9,0,1.5,0.4,2,1.3s0.7,2,0.7,3.6c0,2.7-0.6,5-1.9,6.7c-3.3,4.5-6.5,7.5-9.5,9.1s-6.7,2.5-11.2,2.6
	c-2.7,2.4-5.8,3.7-9.4,3.7C431.4,104.2,428.7,103.4,426.9,101.6z"/>
<path class="st0" d="M505.1,78.6c0.5,0.9,0.7,2,0.7,3.6c0,2.9-0.6,5.1-1.9,6.7c-2.5,3.2-5.9,6.2-10.4,8.9c-4.5,2.7-9.3,4.1-14.4,4.1
	c-7,0-12.4-2-16.2-6.1c-3.8-4.1-5.8-9.7-5.8-16.8c0-5,1-9.6,2.9-13.9s4.6-7.7,8-10.2s7.3-3.8,11.6-3.8c3.8,0,6.9,1.2,9.2,3.7
	c2.3,2.5,3.5,5.8,3.5,10.1c0,5-1.6,9.2-4.9,12.8c-3.3,3.6-8.8,6.4-16.6,8.5c1.7,3.3,4.8,5,9.4,5c3,0,6.4-1.1,10.2-3.4
	c3.8-2.3,7.1-5.2,9.9-8.9c0.8-1,1.7-1.5,2.7-1.5C504,77.3,504.6,77.7,505.1,78.6z M471.8,66.3c-1.7,3.1-2.5,6.8-2.5,11.2v0.2
	c3.9-1,7-2.5,9.2-4.5c2.3-2,3.4-4.3,3.4-7c0-1.4-0.3-2.5-1-3.3s-1.6-1.2-2.8-1.2C475.6,61.7,473.5,63.2,471.8,66.3z"/>
<path class="st1" d="M518.6,98.8c-1.9-2-2.8-4.8-2.8-8.2c0-3.9,1-7,3.2-9.4s5.2-3.5,9-3.5c3.7,0,6.5,1,8.4,2.8
	c1.9,1.8,2.8,4.6,2.8,8.2c0,4-1.1,7.1-3.3,9.5s-5.2,3.6-9,3.6C523.3,101.9,520.5,100.8,518.6,98.8z"/>
</svg>
