<svg version="1.1" id="Layer_1" xmlns="http://www.w3.org/2000/svg" x="0" y="0" viewBox="0 0 316.8 82.8" style="enable-background:new 0 0 316.8 82.8" xml:space="preserve"><style>.st0{fill:none}.st1{fill:#dafffb}.st2{fill:#176b87}</style><path class="st0" d="M54.7 23.3c-3.1 0-5.7 1.4-7.8 4.2-2.2 2.8-3.3 6.2-3.3 10.1 0 4 1.1 7.5 3.3 10.3 2.1 2.8 4.8 4.2 7.8 4.2 3.3 0 5.9-1.3 7.8-4 2-2.7 3-6.2 3-10.6 0-4.4-1-7.9-3-10.4-1.9-2.4-4.5-3.8-7.8-3.8zM155.4 23.6c-3 0-5.6 1.4-7.8 4.2-2.1 2.8-3.2 6.2-3.2 10.1 0 4 1.1 7.4 3.2 10.2 2.1 2.8 4.7 4.2 7.8 4.2 3 0 5.6-1.4 7.8-4.2 2.1-2.8 3.2-6.2 3.2-10.2 0-4-1.1-7.4-3.2-10.1-2.2-2.7-4.8-4.2-7.8-4.2zM88.5 23.6c-2.9 0-5.4 1-7.5 3.1-2.2 2.1-3.4 4.6-3.7 7.7v.8h22.4v-1.1c-.2-2.9-1.4-5.4-3.6-7.5-2.1-2-4.7-3-7.6-3zM294.8 35.6V34c0-1.4-.1-2.6-.4-3.5-.3-.9-.6-1.6-1.1-2.2-.5-.5-1-.9-1.7-1.2-.7-.2-1.4-.3-2.1-.3-1.4 0-2.5.3-3.4.8s-1.6 1.3-2.1 2.3c-.5 1-.9 2-1.2 3.3-.3 1.2-.4 2.6-.5 3.9h12.3c.2-.5.2-1 .2-1.5z"/><path class="st1" d="M54.4 21c-2.4 0-4.6.7-6.6 2.1-2 1.4-3.4 3.3-4.2 5.6v-6.6h-3v43.7h3V47.1c1 2.2 2.6 4 4.6 5.3 2 1.3 4.3 2 6.7 2 4.1 0 7.4-1.5 9.8-4.5 2.5-3 3.7-7 3.7-11.9 0-5.1-1.3-9.2-3.9-12.4-2.4-3-5.8-4.6-10.1-4.6zm8.2 27.3c-1.9 2.6-4.5 4-7.8 4-3.1 0-5.7-1.4-7.8-4.2-2.2-2.8-3.3-6.3-3.3-10.3 0-4 1.1-7.3 3.3-10.1 2.1-2.8 4.7-4.2 7.8-4.2 3.3 0 5.9 1.3 7.8 3.9 2 2.6 3 6.1 3 10.4-.1 4.3-1.1 7.8-3 10.5z"/><path class="st2" d="M239 15.6c.9 0 1.6-.3 2.2-1s.9-1.4.9-2.3c0-.9-.3-1.7-.9-2.3-.6-.6-1.4-1-2.2-1s-1.6.3-2.2 1c-.6.6-.9 1.4-.9 2.3 0 .9.3 1.7.9 2.3s1.3 1 2.2 1z"/><path class="st1" d="M29.7 33.8c-2.8-2.2-6.5-3.5-11-3.9-4-.4-7.2-1.4-9.6-3.1-2.4-1.7-3.6-3.8-3.6-6.3s1.1-4.7 3.4-6.4c2.3-1.8 5.1-2.7 8.3-2.7 3.6 0 6.6.9 9.1 2.8s3.8 4.1 3.8 6.8h3c0-1.7-.4-3.3-1.1-4.7-.8-1.5-1.9-2.8-3.5-4.1-3.1-2.4-6.9-3.7-11.2-3.7-4.1 0-7.5 1.2-10.4 3.5-2.9 2.3-4.3 5.1-4.3 8.4 0 3.3 1.4 6.1 4.2 8.4 2.8 2.3 6.6 3.6 11.3 4 3.9.3 7 1.3 9.2 3 2.3 1.6 3.5 3.7 3.5 6.1 0 2.8-1.3 5.2-4 7.2s-5.9 3-9.6 3c-3.4 0-6.4-1.2-8.8-3.5-2.4-2.3-3.7-5.1-3.7-8.4h-3c0 4.1 1.5 7.5 4.5 10.4 3 2.9 6.6 4.3 10.9 4.3 4.6 0 8.5-1.3 11.7-3.8 3.2-2.5 4.8-5.6 4.8-9.2.2-3.1-1.1-5.9-3.9-8.1z"/><path class="st2" d="M282.4 38.1h18.5c0-2.3-.4-4.2-1.1-5.7-.7-1.5-1.7-2.8-2.8-3.7-1.1-.9-2.3-1.6-3.6-2-1.3-.4-2.5-.6-3.6-.6-1.9 0-3.6.4-5.3 1.2s-3.1 1.9-4.3 3.2c-1.2 1.3-2.2 2.9-2.9 4.6-.7 1.7-1 3.5-1 5.3 0 2.1.3 4 1 5.8.7 1.7 1.6 3.2 2.9 4.5 1.2 1.2 2.7 2.2 4.4 2.9 1.7.7 3.5 1 5.5 1s3.6-.3 4.9-1c1.3-.6 2.3-1.4 3-2.2.7-.8 1.3-1.7 1.6-2.5.3-.8.6-1.5.7-2l-.9-.2c-.2.5-.4 1.1-.7 1.9-.3.8-.8 1.6-1.5 2.3-.7.8-1.6 1.4-2.7 2-1.1.5-2.6.8-4.3.8s-3.2-.4-4.2-1.2c-1-.8-1.9-1.8-2.4-3s-.9-2.5-1-4c-.2-2-.3-4-.2-5.9-.1-.7 0-1.1 0-1.5zm.5-4.8c.3-1.2.7-2.3 1.2-3.3s1.2-1.7 2.1-2.3 2-.8 3.4-.8c.8 0 1.5.1 2.1.3.7.2 1.2.6 1.7 1.2.5.5.8 1.3 1.1 2.2.3.9.4 2.1.4 3.5v1.6c0 .5 0 1-.1 1.6h-12.3c0-1.5.2-2.8.4-4zM264.2 38.2l-4.4-1.5c-1.8-.6-3.1-1.2-4-1.9-.9-.7-1.3-1.7-1.3-3 0-1.5.5-2.7 1.6-3.6 1.1-.9 2.5-1.3 4.5-1.3 1 0 1.9.2 2.6.6s1.4.9 1.9 1.5c.5.7.9 1.4 1.3 2.3.4.8.7 1.7 1 2.6h.7v-7.1h-.7c-.2.3-.5.5-1 .5s-.8-.1-1.1-.2c-.3-.1-.7-.3-1.1-.4-.4-.1-.9-.3-1.4-.4-.5-.1-1.2-.2-2.1-.2-1.2 0-2.4.2-3.5.6-1 .4-2 1-2.7 1.7-.8.8-1.4 1.6-1.8 2.6-.4 1-.7 2.1-.7 3.2 0 1.4.2 2.5.6 3.4s.9 1.6 1.5 2.2c.6.6 1.2 1 2 1.3.7.3 1.3.6 2 .8l4.7 1.7c1 .4 2 .9 2.7 1.5.8.6 1.2 1.8 1.2 3.3 0 1.8-.5 3.1-1.5 4-1 .8-2.2 1.2-3.4 1.2-1.5 0-2.8-.3-3.9-.8s-2-1.2-2.7-2.1c-.7-.8-1.3-1.8-1.8-2.8s-.8-2-1.1-3h-.7v8.7h.7c.1-.2.3-.4.5-.6s.5-.3 1-.3.9.1 1.4.3 1.1.4 1.7.6c.6.2 1.3.4 2 .6s1.5.3 2.4.3c1.5 0 2.9-.2 4-.8s2.2-1.1 3-2 1.4-1.8 1.9-2.8c.4-1.1.6-2.2.6-3.3 0-1.9-.6-3.4-1.8-4.6-1.4-1.2-2.9-2.1-4.8-2.8zM241.7 26.8h-9.8v.9h4.7V52.6h-4.7v.9h14.4v-.9h-4.6z"/><path class="st1" d="M88.5 21c-4.3 0-7.7 1.5-10.3 4.6-2.6 3.1-3.9 7.3-3.9 12.4 0 5.1 1.3 9.2 3.9 12.4 2.6 3.1 6 4.6 10.3 4.6 3.6 0 6.7-1 9.4-2.9s4.3-4.4 4.8-7.3h-3c-.8 2.2-2.2 4-4.3 5.4-2 1.3-4.3 2-6.9 2-3.4 0-6.1-1.3-8.1-3.9-2-2.6-3.1-6-3.1-10.4h25.3v-1.4c0-4.7-1.3-8.5-3.9-11.3-2.5-2.7-5.9-4.2-10.2-4.2zm11.2 14.2H77.3v-.8c.2-3 1.5-5.6 3.7-7.7 2.1-2 4.7-3.1 7.5-3.1 2.9 0 5.4 1 7.6 3 2.1 2 3.3 4.5 3.6 7.5v1.1zM123.1 21.3c-2.2 0-4.3.6-6.1 1.7-1.8 1.1-3.2 2.6-4.1 4.5v-5.4h-3v31.8h3V33c.5-2.6 1.6-4.7 3.6-6.5 1.9-1.7 4.2-2.5 6.6-2.5 2.3 0 4.2.8 5.9 2.3 1.6 1.5 2.5 3.4 2.5 5.6V54h3V31.8c0-2.9-1.1-5.4-3.4-7.4-2.2-2-4.9-3.1-8-3.1zM166.4 29c-.9-2.4-2.3-4.3-4.3-5.8-2-1.4-4.3-2.2-6.7-2.2-3.8 0-7.1 1.7-9.8 5-2.7 3.3-4.1 7.3-4.1 12 0 4.6 1.4 8.6 4.1 11.8 2.7 3.3 6 4.9 9.8 4.9 2.5 0 4.8-.7 6.8-2s3.5-3.1 4.2-5.3v6.5h3V12.8h-3V29zm-3.2 19.2c-2.2 2.8-4.8 4.2-7.8 4.2s-5.6-1.4-7.8-4.2c-2.1-2.8-3.2-6.2-3.2-10.2 0-4 1.1-7.4 3.2-10.1 2.1-2.8 4.7-4.2 7.8-4.2 3 0 5.6 1.4 7.8 4.2 2.1 2.8 3.2 6.2 3.2 10.1 0 4-1.1 7.4-3.2 10.2z"/><path class="st2" d="M232.3 9.2h-12.8v.9h6.4l-12.6 36.1h-.1l-12.4-36.1h6.6v-.9h-18v.9h5l4.6 13.1-8 23h-.2l-7.4-21.8-4.9-14.3h6.2v-.9h-13.9v.9h1.3l15.3 44.3h1.6l10.4-29.8h.2l10.3 29.8h1.5l15.5-44.3h5.4z"/><path d="M311.9 43.8c-1.3 0-2.5.5-3.4 1.4s-1.4 2.1-1.4 3.4c0 2.7 2.2 4.8 4.8 4.8 2.7 0 4.8-2.2 4.8-4.8.1-2.6-2.1-4.8-4.8-4.8z" style="fill:#64ccc5"/><path class="st2" d="M169.8 9.2h-.4v.9H170.8v-.9z"/><path class="st1" d="M166.4 9.2v3.6h3V9.2z"/></svg>